<svg id="Capa_1" enable-background="new 0 0 512 512" height="512" viewBox="0 0 512 512" width="512" xmlns="http://www.w3.org/2000/svg"><g><path d="m240.999 210.75c-19.694 0-36.481 12.651-42.684 30.25h85.368c-6.203-17.599-22.99-30.25-42.684-30.25z"/><path d="m497 0h-482c-8.284 0-15 6.716-15 15v482c0 8.284 6.716 15 15 15h482c8.284 0 15-6.716 15-15v-482c0-8.284-6.716-15-15-15zm-256.001 301.25c12.086 0 23.45-4.707 31.997-13.253 5.858-5.858 15.355-5.858 21.213 0l42.604 42.603c2.813 2.812 4.394 6.628 4.394 10.606s-1.58 7.793-4.393 10.606c-25.592 25.593-59.62 39.688-95.813 39.688-74.715 0-135.5-60.785-135.5-135.5s60.785-135.5 135.5-135.5 135.5 60.785 135.5 135.5c0 8.284-6.716 15-15 15h-163.186c6.203 17.599 22.99 30.25 42.684 30.25z"/><path d="m345.436 241c-7.305-51.094-51.355-90.5-104.437-90.5-58.173 0-105.5 47.327-105.5 105.5s47.327 105.5 105.5 105.5c23.117 0 45.098-7.384 63.25-21.037l-21.698-21.697c-12.215 8.123-26.549 12.484-41.552 12.484-41.493 0-75.25-33.757-75.25-75.25s33.757-75.25 75.25-75.25c36.357 0 66.775 25.92 73.749 60.25z"/></g></svg>